# AST/ASF file generated using VICON BodyLanguage
# -----------------------------------------------
:version 1.10
:name VICON
:units
  mass 1.0
  length 0.45
  angle deg
:documentation
   .ast/.asf automatically generated from VICON data using
   VICON BodyBuilder and BodyLanguage model FoxedUp or BRILLIANT.MOD
:root
   order TX TY TZ RX RY RZ
   axis XYZ
   position 0 0 0  
   orientation 0 0 0 
:bonedata
  begin
     id 1 
     name lhipjoint
     direction 0.558404 -0.748506 0.357664 
     length 2.4234 
     axis 0 0 0  XYZ
  end
  begin
     id 2 
     name lfemur
     direction 0.34202 -0.939693 0  
     length 7.14567  
     axis 0 0 20  XYZ
    dof rx ry rz
    limits (-160.0 20.0)
           (-70.0 70.0)
           (-60.0 70.0)
  end
  begin
     id 3 
     name ltibia
     direction 0.34202 -0.939693 0   
     length 8.13956   
     axis 0 0 20   XYZ
    dof rx
    limits (-10.0 170.0)
  end
  begin
     id 4 
     name lfoot
     direction 0.0791314 -0.217412 0.972867   
     length 2.00134   
     axis -90 7.62852e-016 20   XYZ
    dof rx rz
    limits (-45.0 90.0)
           (-70.0 20.0)
  end
  begin
     id 5 
     name ltoes
     direction 1.53547e-011 -4.21922e-011 1   
     length 1.00735   
     axis -90 7.62852e-016 20   XYZ
    dof rx
    limits (-90.0 20.0)
  end
  begin
     id 6 
     name rhipjoint
     direction -0.496392 -0.78327 0.374276   
     length 2.31584  
     axis 0 0 0  XYZ 
  end
  begin
     id 7 
     name rfemur
     direction -0.34202 -0.939693 0   
     length 7.47417   
     axis 0 0 -20   XYZ
    dof rx ry rz
    limits (-160.0 20.0)
           (-70.0 70.0)
           (-70.0 60.0)
  end
  begin
     id 8 
     name rtibia
     direction -0.34202 -0.939693 0   
     length 7.69071   
     axis 0 0 -20   XYZ
    dof rx
    limits (-10.0 170.0)
 end
 begin
     id 9 
     name rfoot
     direction -0.103069 -0.28318 0.953512   
     length 2.16135  
     axis -90 -7.62852e-016 -20   XYZ
    dof rx rz
    limits (-45.0 90.0)
           (-20.0 70.0)
  end
  begin
     id 10 
     name rtoes
     direction -1.53581e-011 -4.21904e-011 1   
     length 1.07867   
     axis -90 -7.62852e-016 -20   XYZ
    dof rx
    limits (-90.0 20.0)
  end
  begin
     id 11 
     name lowerback
     direction -0.0258961 0.994776 -0.0987407   
     length 2.19412   
     axis 0 0 0   XYZ
    dof rx ry rz
    limits (-20.0 45.0)
           (-30.0 30.0)
           (-30.0 30.0)
  end
  begin
     id 12 
     name upperback
     direction 0.0402454 0.999185 0.00320666   
     length 2.18445   
     axis 0 0 0   XYZ
    dof rx ry rz
    limits (-20.0 45.0)
           (-30.0 30.0)
           (-30.0 30.0)
  end
  begin
     id 13 
     name thorax
     direction 0.0519376 0.997415 0.0496558   
     length 2.21487   
     axis 0 0 0   XYZ
    dof rx ry rz
    limits (-20.0 45.0)
           (-30.0 30.0)
           (-30.0 30.0)
  end
  begin
     id 14 
     name lowerneck
     direction -0.0921276 0.983211 0.157506   
     length 1.61201   
     axis 0 0 0   XYZ
    dof rx ry rz
    limits (-20.0 45.0)
           (-30.0 30.0)
           (-30.0 30.0)
  end
  begin
     id 15 
     name upperneck
     direction 0.0820814 0.98162 -0.172292   
     length 1.65275   
     axis 0 0 0   XYZ
    dof rx ry rz
    limits (-20.0 45.0)
           (-30.0 30.0)
           (-30.0 30.0)
  end
  begin
     id 16
     name head
     direction 0.0336554 0.996413 -0.0776455  
     length 1.66415  
     axis 0 0 0   XYZ
    dof rx ry rz
    limits (-20.0 45.0)
           (-30.0 30.0)
           (-30.0 30.0)
  end
  begin
     id 17 
     name lclavicle
     direction 0.94696 0.284418 -0.149576  
     length 3.41447  
     axis 0 0 0   XYZ
    dof ry rz
    limits (-20.0 10.0)
           (0.0 20.0)
  end
  begin
     id 18 
     name lhumerus
     direction 1 -0.000130264 -9.81312e-005   
     length 5.19964   
     axis 180 -30 -90   XYZ
    dof rx ry rz
    limits (-60.0 90.0)
           (-90.0 90.0)
           (-90.0 90.0)
  end
  begin
     id 19
     name lradius
     direction 1 -4.48961e-011 1.43854e-026   
     length 3.32189   
     axis 180 -30 -90   XYZ
    dof rx
    limits (-10.0 170.0)
  end
  begin
     id 20
     name lwrist
     direction 1 -4.48958e-011 3.1502e-026   
     length 1.66095   
     axis -1.97692e-014 90 90   XYZ
    dof ry
    limits (-180.0 0.0)
 end
  begin
     id 21 
     name lhand
     direction 1 -4.48927e-011 6.3004e-026   
     length 0.645616   
     axis -4.02019e-014 90 90   XYZ
    dof rx rz
    limits (-90.0 90.0)
           (-45.0 45.0)
  end
  begin
     id 22 
     name lfingers
     direction 1 -4.4904e-011 1.26008e-025   
     length 0.520512   
     axis -8.04039e-014 90 90   XYZ
    dof rx
    limits (0.0 90.0)
  end
  begin
     id 23
     name lthumb
     direction 0.707107 -6.34947e-011 0.707107   
     length 0.747354   
     axis -90 45 2.85299e-015   XYZ
    dof rx rz
    limits (-45.0 45.0)
           (-45.0 45.0)
  end
  begin
     id 24 
     name rclavicle
     direction -0.909391 0.383475 -0.161107   
     length 3.25176  
     axis 0 0 0   XYZ 
    dof ry rz
    limits (-10.0 20.0)
           (-20.0 0.0)
  end
  begin
     id 25 
     name rhumerus
     direction -1 -4.48965e-011 -1.81384e-027  
     length 5.6595   
     axis 180 30 90   XYZ
    dof rx ry rz
    limits (-90.0 60.0)
           (-90.0 90.0)
           (-90.0 90.0)
  end
  begin
     id 26 
     name rradius
     direction -1 -4.48996e-011 -8.09397e-027   
     length 3.37604   
     axis 180 30 90   XYZ
    dof rx
    limits (-10.0 170.0)
  end
  begin
     id 27 
     name rwrist
     direction -1 -4.48927e-011 -1.56669e-026   
     length 1.68802   
     axis 1.21142e-014 -90 -90   XYZ
    dof ry
    limits (-180.0 0.0)
  end
  begin
     id 28
     name rhand
     direction -1 -4.48912e-011 -3.13339e-026   
     length 0.824702   
     axis 1.99937e-014 -90 -90   XYZ
    dof rx rz
    limits (-90.0 90.0)
           (-45.0 45.0)
  end
  begin
     id 29
     name rfingers
     direction -1 -4.49011e-011 -6.26677e-026   
     length 0.664896   
     axis 3.99874e-014 -90 -90   XYZ
    dof rx
    limits (0.0 90.0)
  end
  begin
     id 30
     name rthumb
     direction -0.707107 -6.34931e-011 0.707107   
     length 0.954662   
     axis -90 -45 -2.85299e-015   XYZ
    dof rx rz
    limits (-45.0 45.0)
           (-45.0 45.0)
  end
:hierarchy
  begin
    root lhipjoint rhipjoint lowerback
    lhipjoint lfemur
    lfemur ltibia
    ltibia lfoot
    lfoot ltoes
    rhipjoint rfemur
    rfemur rtibia
    rtibia rfoot
    rfoot rtoes
    lowerback upperback
    upperback thorax
    thorax lowerneck lclavicle rclavicle
    lowerneck upperneck
    upperneck head
    lclavicle lhumerus
    lhumerus lradius
    lradius lwrist
    lwrist lhand lthumb
    lhand lfingers
    rclavicle rhumerus
    rhumerus rradius
    rradius rwrist
    rwrist rhand rthumb
    rhand rfingers
  end

#!OML:ASF F:\VICON\USERDATA\INSTALL\rory3\rory3.ASF
:FULLY-SPECIFIED
:DEGREES
301
root 9.2721 17.7562 -14.3291 2.29248 -20.527 -3.91708
lowerback 1.79987 1.26005 -1.93454
upperback -1.39442 1.69334 3.10892
thorax -2.59605 0.909692 4.22492
lowerneck -9.85898 -7.6912 -16.5337
upperneck 21.5272 -10.8504 13.3313
head 10.1159 -5.16646 6.13316
rclavicle 3.08427e-014 -2.5842e-014
rhumerus -30.1791 -21.8011 -61.4502
rradius 36.6859
rwrist -12.7602
rhand -10.3627 16.9167
rfingers 7.12502
rthumb 15.6344 -12.4715
lclavicle 3.08427e-014 -2.5842e-014
lhumerus -30.8368 20.6788 70.5189
lradius 29.5763
lwrist -14.9897
lhand -1.37795 29.0976
lfingers 7.12502
lthumb 24.2699 57.5814
rfemur -10.0515 -0.213037 16.9777
rtibia 34.8528
rfoot -20.1914 -14.3032
rtoes 10.0741
lfemur -10.6177 -5.48279 -15.3934
ltibia 35.803
lfoot -22.6543 3.09449
ltoes -1.37459
302
root 9.26677 17.7593 -14.3333 2.37343 -19.8365 -4.06241
lowerback 1.62665 1.27187 -1.7328
upperback -1.34931 1.71461 3.11424
thorax -2.44762 0.913876 4.11908
lowerneck -9.86791 -7.43287 -16.4513
upperneck 21.6411 -10.5342 13.4609
head 10.1038 -5.00119 6.22055
rclavicle 2.21024e-014 1.90833e-014
rhumerus -29.804 -22.2698 -61.5659
rradius 36.4178
rwrist -12.4188
rhand -10.2738 17.0963
rfingers 7.12502
rthumb 15.72 -12.2852
lclavicle 2.21024e-014 1.90833e-014
lhumerus -30.8023 20.8105 70.3992
lradius 29.5393
lwrist -14.8833
lhand -1.39783 29.4939
lfingers 7.12502
lthumb 24.2508 57.9802
rfemur -9.923 -0.64835 17.1843
rtibia 34.7515
rfoot -20.2695 -14.5528
rtoes 9.89352
lfemur -10.8441 -5.80951 -15.1536
ltibia 35.8772
lfoot -22.6246 2.74047
ltoes -1.20801
303
root 9.26 17.7612 -14.341 2.39457 -19.2571 -4.1414
lowerback 1.60386 1.31698 -1.69325
upperback -1.31897 1.77619 3.14194
thorax -2.40845 0.943354 4.12372
lowerneck -10.0067 -7.29602 -16.3619
upperneck 21.7909 -10.333 13.415
head 10.1402 -4.89916 6.2203
rclavicle -2.93829e-014 -4.77083e-015
rhumerus -29.55 -22.1354 -61.7452
rradius 36.4863
rwrist -12.5629
rhand -10.2143 17.0192
rfingers 7.12502
rthumb 15.7773 -12.3578
lclavicle -2.93829e-014 -4.77083e-015
lhumerus -30.8312 21.0397 70.2777
lradius 29.5733
lwrist -14.9324
lhand -0.999777 30.6906
lfingers 7.12502
lthumb 24.6324 59.1255
rfemur -9.80013 -0.932149 17.3331
rtibia 34.6513
rfoot -20.2684 -14.8352
rtoes 9.75232
lfemur -11.0185 -5.97769 -14.9805
ltibia 35.95
lfoot -22.6008 2.41093
ltoes -1.49474
304
root 9.25311 17.7636 -14.3469 2.41405 -18.6767 -4.17085
lowerback 1.57696 1.40941 -1.6639
upperback -1.31934 1.90068 3.13604
thorax -2.40309 1.00513 4.09645
lowerneck -9.90581 -7.25542 -16.2823
upperneck 21.6313 -10.2701 13.3604
head 10.0447 -4.87009 6.19303
rclavicle -6.1996e-015 -1.66979e-014
rhumerus -29.5839 -21.683 -61.852
rradius 36.8243
rwrist -12.8085
rhand -10.4056 16.6317
rfingers 7.12502
rthumb 15.5931 -12.7598
lclavicle -6.1996e-015 -1.66979e-014
lhumerus -30.637 21.2449 70.2
lradius 29.3119
lwrist -15.1187
lhand -1.12441 30.761
lfingers 7.12502
lthumb 24.513 59.2121
rfemur -9.70965 -1.11557 17.4488
rtibia 34.5696
rfoot -20.3041 -15.2051
rtoes 9.78342
lfemur -11.2045 -6.04742 -14.8353
ltibia 36.0117
lfoot -22.5722 1.98464
ltoes -1.69546
305
root 9.24697 17.7664 -14.3504 2.44714 -18.1237 -4.17903
lowerback 1.42423 1.54389 -1.5906
upperback -1.22139 2.07974 3.08005
thorax -2.22632 1.08934 3.99459
lowerneck -9.91774 -7.2252 -16.2461
upperneck 21.4559 -10.2593 13.5685
head 9.99196 -4.83994 6.26151
rclavicle -5.37961e-015 -2.8625e-014
rhumerus -29.4173 -21.5856 -61.9965
rradius 36.9628
rwrist -12.7771
rhand -11.3006 15.9547
rfingers 7.12502
rthumb 14.7309 -13.5019
lclavicle -5.37961e-015 -2.8625e-014
lhumerus -30.1806 21.5857 70.1111
lradius 28.8831
lwrist -15.48
lhand -1.33066 29.7776
lfingers 7.12502
lthumb 24.3152 58.2553
rfemur -9.63775 -1.31074 17.5286
rtibia 34.5084
rfoot -20.4125 -15.4689
rtoes 10.219
lfemur -11.3953 -6.23552 -14.7406
ltibia 36.0533
lfoot -22.4834 1.66927
ltoes -1.33817
306
root 9.24045 17.7678 -14.3569 2.44408 -17.5988 -4.11554
lowerback 1.38496 1.64046 -1.6129
upperback -1.14682 2.20633 3.02673
thorax -2.13647 1.15049 3.94909
lowerneck -10.1527 -7.16916 -16.2147
upperneck 21.415 -10.1861 13.7586
head 10.0186 -4.77485 6.33251
rclavicle -4.11251e-014 -5.36719e-015
rhumerus -29.0696 -21.7448 -62.1566
rradius 36.8829
rwrist -12.8098
rhand -11.9471 15.5001
rfingers 7.12502
rthumb 14.108 -14.001
lclavicle -4.11251e-014 -5.36719e-015
lhumerus -30.0434 22.085 69.8582
lradius 28.5625
lwrist -15.8897
lhand -1.39483 28.412
lfingers 7.12502
lthumb 24.2537 56.898
rfemur -9.58034 -1.61317 17.5121
rtibia 34.4592
rfoot -20.4086 -15.661
rtoes 10.2543
lfemur -11.5602 -6.47809 -14.7504
ltibia 36.0785
lfoot -22.3691 1.50171
ltoes -1.29885
307
root 9.23218 17.7693 -14.366 2.42102 -17.026 -4.03851
lowerback 1.5375 1.69832 -1.67524
upperback -1.2332 2.28292 2.98238
thorax -2.31818 1.19317 3.9296
lowerneck -10.2342 -7.11351 -16.1294
upperneck 21.4905 -10.0926 13.6685
head 10.0345 -4.72889 6.29865
rclavicle 5.80047e-014 1.88845e-014
rhumerus -29.0963 -21.6969 -62.1996
rradius 36.9638
rwrist -13.0521
rhand -11.7035 15.7823
rfingers 7.12502
rthumb 14.3427 -13.7022
lclavicle 5.80047e-014 1.88845e-014
lhumerus -30.1861 22.266 69.5723
lradius 28.3911
lwrist -16.1035
lhand -1.25166 27.6125
lfingers 7.12502
lthumb 24.391 56.08
rfemur -9.51513 -1.96863 17.4856
rtibia 34.4185
rfoot -20.3728 -15.9162
rtoes 10.0576
lfemur -11.7212 -6.6574 -14.7511
ltibia 36.1054
lfoot -22.2932 1.22885
ltoes -1.46676
